<?xml version="1.0" encoding="utf-8"?>
<!-- Generator: Adobe Illustrator 27.5.0, SVG Export Plug-In . SVG Version: 6.00 Build 0)  -->
<svg version="1.1" id="Слой_1" xmlns="http://www.w3.org/2000/svg" xmlns:xlink="http://www.w3.org/1999/xlink" x="0px" y="0px"
	 viewBox="0 0 2000 2000" style="enable-background:new 0 0 2000 2000;" xml:space="preserve">
<g>
	<rect y="0.001" style="fill:#FAFAFA;" width="2000" height="2000"/>
	<g>
		<g>
			<g>
				
					<rect x="1554.72" y="759.129" transform="matrix(0.5469 -0.8372 0.8372 0.5469 93.3698 1692.8458)" style="fill:#97A43C;" width="111.682" height="2.075"/>
			</g>
			<g>
				<path style="fill:#97A43C;" d="M1753.968,763.348c-25.514,15.299-69.928,34.565-136.62,39.466
					c-64.106,4.711-113.51,10.961-155.477,19.667c-52.005,10.789-92.002,25.306-122.278,44.382l1.107,1.756
					c69.102-43.539,184.226-56.931,276.801-63.735c67.172-4.937,111.932-24.382,137.651-39.825
					c27.933-16.772,40.136-32.64,40.255-32.798l-1.653-1.255C1793.634,731.163,1781.604,746.777,1753.968,763.348z"/>
			</g>
			<g>
				<g>
					<g>
						<g>
							<path style="fill:#97A43C;" d="M1794.823,730.63c-57.313-14.111-111.298-20.033-161.351-17.754
								c-25.726,1.171-50.414,4.499-73.969,9.999c-1.894,0.446-3.787,0.904-5.668,1.375c-11.783,2.954-23.302,6.452-34.519,10.505
								c-16.717,6.006-32.781,13.231-48.146,21.649c-15.1,8.25-29.525,17.632-43.25,28.15c-4.909,3.739-9.722,7.646-14.449,11.688
								c-2.991,2.544-5.934,5.161-8.853,7.827c-6.852,6.271-13.256,12.652-19.237,19.044c-1.399,1.483-2.774,2.979-4.125,4.463
								c-8.925,9.854-16.849,19.695-23.832,29.175c-0.953,1.278-1.87,2.545-2.786,3.811c-1.701,2.376-3.352,4.728-4.934,7.044
								c-5.522,8.068-10.348,15.752-14.484,22.831c-1.23,2.087-2.4,4.113-3.497,6.091c-1.05,1.846-2.027,3.643-2.968,5.379
								c-14.955,27.74-21.094,47.616-21.154,47.809l-1.725,5.656l3.545-4.727c0.133-0.181,13.003-16.957,50.005-33.831
								c0.35-0.157,0.699-0.326,1.062-0.483c3.22-1.446,6.682-2.918,10.396-4.401c7.453-2.991,15.932-6.006,25.521-8.925
								c5.561-1.701,11.506-3.365,17.826-4.958c16.548-4.209,35.748-8.008,57.903-10.927c26.414-3.485,57-5.717,92.254-5.898
								c21.275-0.097,41.404-1.81,60.28-5.114c8.648-1.496,17.029-3.341,25.147-5.512c13.135-3.51,25.545-7.888,37.208-13.11
								c27.704-12.423,51.223-29.682,69.904-51.283c31.816-36.798,38.607-74.018,38.68-74.392l0.156-0.952L1794.823,730.63z
								 M1755.348,804.84c-10.83,12.543-25.521,25.991-45.144,37.955c-0.627,0.386-1.254,0.76-1.894,1.134
								c-16.692,9.95-36.882,18.803-61.196,25.122c-7.188,1.894-14.751,3.546-22.687,4.945c-17.995,3.184-37.956,5.041-60.039,5.15
								c-32.975,0.169-63.874,2.123-92.266,5.837c-11.819,1.544-23.205,3.389-34.132,5.536c-8.19,1.604-16.125,3.377-23.784,5.331
								c-6.03,1.519-11.903,3.147-17.585,4.884c-9.395,2.847-18.309,5.958-26.727,9.359c-3.582,1.436-7.08,2.919-10.48,4.451
								c-0.664,0.302-1.326,0.603-1.978,0.905c-26.499,12.218-40.368,24.134-46.218,30.067c2.689-7.466,8.816-23.06,19.37-42.623
								c0.88-1.64,1.809-3.328,2.785-5.065c1.327-2.376,2.738-4.824,4.233-7.357c3.8-6.441,8.142-13.364,13.074-20.6
								c2.533-3.738,5.234-7.574,8.093-11.458c0.904-1.242,1.833-2.484,2.799-3.751c7.03-9.335,14.967-18.971,23.88-28.584
								c0.845-0.929,1.713-1.857,2.593-2.773c5.608-5.946,11.603-11.868,17.971-17.705c2.425-2.22,4.909-4.427,7.479-6.634
								c4.088-3.534,8.37-7.056,12.856-10.554c13.206-10.275,28.114-20.286,44.842-29.44c14.256-7.803,29.839-14.992,46.809-21.19
								c13.435-4.933,27.739-9.239,42.973-12.749c21.625-5.017,45.095-8.43,70.52-9.757c2.436-0.145,4.885-0.253,7.345-0.338
								c0.845-0.036,1.689-0.06,2.533-0.072c4.691-0.157,9.443-0.229,14.268-0.229c19.551,0,40.175,1.206,61.921,3.813
								c0.688,0.084,1.387,0.168,2.086,0.253c23.085,2.858,47.424,7.297,73.077,13.544c0.217,0.048,0.422,0.108,0.639,0.156
								c-0.145,0.688-0.386,1.725-0.735,3.088C1789.963,746.02,1780.712,775.532,1755.348,804.84z"/>
						</g>
					</g>
				</g>
			</g>
			<g>
				<g>
					<g>
						<g>
							<path style="fill:#BBD070;" d="M1222.558,363.915c0,0,46.301,107.714,5.334,199.063
								c-86.914,193.808-21.025,168.823-21.025,168.823s55.783,129.525,144.774-28.949
								C1440.632,544.379,1222.558,363.915,1222.558,363.915z"/>
						</g>
					</g>
				</g>
				<g>
					<g>
						<g>
							<path style="fill:#97A43C;" d="M1414.334,969.201c0,0-41.724-132.165,149.545-400.981
								c191.268-268.817,22.259-441.609,22.259-441.609C1092.812,547.26,1414.334,969.201,1414.334,969.201z"/>
						</g>
					</g>
				</g>
				<g>
					<g>
						<g>
							<path style="fill:#48753A;" d="M1464.89,537.648c-139.809,96.309-205.239,380.239-109.381,353.829
								c472.035-130.056,454.944-556.262,454.944-556.262C1734.553,423.889,1604.697,441.338,1464.89,537.648z"/>
						</g>
					</g>
				</g>
			</g>
			<g>
				
					<rect x="1673.946" y="751.698" transform="matrix(0.238 -0.9713 0.9713 0.238 572.1199 2234.6929)" style="fill:#97A43C;" width="72.557" height="2.076"/>
			</g>
			<g>
				
					<rect x="1681.942" y="786.756" transform="matrix(0.6322 -0.7748 0.7748 0.6322 -17.8481 1606.2408)" style="fill:#97A43C;" width="2.076" height="70.329"/>
			</g>
		</g>
		<g>
			<linearGradient id="SVGID_1_" gradientUnits="userSpaceOnUse" x1="252.5323" y1="620.3171" x2="745.2681" y2="620.3171">
				<stop  offset="0" style="stop-color:#FF9F55"/>
				<stop  offset="1" style="stop-color:#FFD255"/>
			</linearGradient>
			<path style="fill:url(#SVGID_1_);" d="M704.597,567.025c-5.001-19.359-12.674-37.641-22.583-54.447l22.99-34.575l-31.895-31.895
				l-31.895-31.895l-34.575,22.989c-16.806-9.909-35.088-17.582-54.447-22.583l-8.185-40.671H498.9h-45.106l-8.186,40.671
				c-19.359,5.001-37.641,12.674-54.447,22.583l-34.575-22.989l-31.895,31.895l-31.895,31.895l22.99,34.575
				c-9.909,16.807-17.582,35.088-22.583,54.447l-40.671,8.186v45.106v45.106l40.671,8.185c5.001,19.359,12.674,37.641,22.583,54.447
				l-22.99,34.575l31.895,31.894l31.895,31.895l34.575-22.989c16.806,9.91,35.087,17.582,54.447,22.583l8.186,40.671H498.9h45.107
				l8.185-40.671c19.359-5.001,37.641-12.673,54.446-22.583l34.575,22.989l31.895-31.895l31.895-31.894l-22.99-34.575
				c9.909-16.806,17.582-35.088,22.583-54.447l40.671-8.185v-45.106v-45.106L704.597,567.025z M498.9,778.371
				c-87.29,0-158.054-70.763-158.054-158.054c0-87.291,70.763-158.054,158.054-158.054c87.291,0,158.054,70.763,158.054,158.054
				C656.954,707.608,586.191,778.371,498.9,778.371z"/>
		</g>
		<g>
			
				<linearGradient id="SVGID_00000026861390056927010860000018003288911610033041_" gradientUnits="userSpaceOnUse" x1="110.6241" y1="346.3863" x2="336.5166" y2="346.3863">
				<stop  offset="0" style="stop-color:#FF9F55"/>
				<stop  offset="1" style="stop-color:#FFD255"/>
			</linearGradient>
			<path style="fill:url(#SVGID_00000026861390056927010860000018003288911610033041_);" d="M317.871,321.955
				c-2.293-8.875-5.81-17.256-10.353-24.96l10.54-15.851l-14.622-14.623l-14.622-14.622l-15.851,10.539
				c-7.704-4.542-16.085-8.061-24.96-10.353l-3.753-18.645H223.57h-20.679l-3.752,18.645c-8.876,2.293-17.256,5.811-24.961,10.353
				l-15.851-10.539l-14.622,14.622l-14.622,14.623l10.54,15.851c-4.543,7.704-8.061,16.085-10.353,24.96l-18.646,3.752v20.679
				v20.679l18.646,3.752c2.293,8.875,5.81,17.256,10.353,24.961l-10.54,15.851l14.622,14.622l14.622,14.622l15.851-10.54
				c7.705,4.544,16.085,8.06,24.961,10.353l3.752,18.646h20.679h20.679l3.753-18.646c8.875-2.293,17.256-5.809,24.96-10.353
				l15.851,10.54l14.622-14.622l14.622-14.622l-10.54-15.851c4.543-7.705,8.061-16.086,10.353-24.961l18.646-3.752v-20.679v-20.679
				L317.871,321.955z M223.57,418.845c-40.018,0-72.459-32.44-72.459-72.458c0-40.018,32.441-72.46,72.459-72.46
				c40.018,0,72.459,32.441,72.459,72.46C296.029,386.404,263.588,418.845,223.57,418.845z"/>
		</g>
		<g>
			<path style="fill:#B5DEFF;" d="M465.175,1766.813h1080.578c24.038,0,43.525-19.486,43.525-43.524V767.283
				c0-24.038-19.487-43.525-43.525-43.525H465.175c-24.038,0-43.525,19.487-43.525,43.525v956.006
				C421.65,1747.327,441.137,1766.813,465.175,1766.813z"/>
		</g>
		<g>
			
				<rect x="504.555" y="657.899" transform="matrix(-1 -1.224647e-16 1.224647e-16 -1 2029.2769 2334.8311)" style="fill:#FFFFFF;" width="1020.167" height="1019.032"/>
		</g>
		<g>
			
				<linearGradient id="SVGID_00000096042349012329710250000003375454637219636649_" gradientUnits="userSpaceOnUse" x1="1797.0725" y1="605.855" x2="861.8695" y2="605.855">
				<stop  offset="0" style="stop-color:#40D5E6"/>
				<stop  offset="1" style="stop-color:#5577FF"/>
			</linearGradient>
			<path style="fill:url(#SVGID_00000096042349012329710250000003375454637219636649_);" d="M504.555,657.899h1020.167v-48.129
				c0-30.905-25.054-55.96-55.959-55.96H560.515c-30.906,0-55.96,25.055-55.96,55.96V657.899z"/>
		</g>
		<g>
			<g>
				<path style="fill:#FFDF69;" d="M986.197,421.417c-2.784,0-5.041-2.257-5.041-5.041v-69.719c0-2.783,2.257-5.04,5.041-5.04
					c2.784,0,5.04,2.257,5.04,5.04v69.719C991.238,419.16,988.981,421.417,986.197,421.417z"/>
			</g>
			<g>
				<path style="fill:#FFDF69;" d="M1021.057,386.558h-69.719c-2.784,0-5.041-2.257-5.041-5.04c0-2.784,2.257-5.04,5.041-5.04
					h69.719c2.783,0,5.04,2.257,5.04,5.04C1026.097,384.301,1023.84,386.558,1021.057,386.558z"/>
			</g>
		</g>
		<g>
			<rect x="745.836" y="657.899" style="fill:#F2F9FF;" width="18.349" height="1019.032"/>
			
				<rect x="1005.464" y="916.394" transform="matrix(6.123234e-17 -1 1 6.123234e-17 -411.8387 2441.1155)" style="fill:#F2F9FF;" width="18.349" height="1020.167"/>
			
				<rect x="1005.464" y="656.765" transform="matrix(6.123234e-17 -1 1 6.123234e-17 -152.2097 2181.4866)" style="fill:#F2F9FF;" width="18.349" height="1020.167"/>
			
				<rect x="1005.464" y="398.271" transform="matrix(6.123234e-17 -1 1 6.123234e-17 106.2844 1922.9924)" style="fill:#F2F9FF;" width="18.349" height="1020.167"/>
			<rect x="1005.465" y="657.899" style="fill:#F2F9FF;" width="18.348" height="1019.032"/>
			<rect x="1265.093" y="657.899" style="fill:#F2F9FF;" width="18.349" height="1019.032"/>
		</g>
		<g>
			<path style="fill:#FFDF69;" d="M1524.722,1435.652c0,0-0.169,111.688-26.35,206.365l-55.801,34.926h-196.746
				c37.38-99.473,37.606-241.291,37.606-241.291H1524.722z"/>
			<polygon style="fill:#DEBA35;" points="1442.571,1676.943 1442.571,1641.209 1498.372,1641.209 			"/>
		</g>
		<g>
			<path style="fill:#FFDF69;" d="M1265.093,1176.012c0,0-0.169,111.688-26.349,206.365l-55.802,34.926H986.197
				c37.379-99.473,37.606-241.291,37.606-241.291H1265.093z"/>
			<polygon style="fill:#DEBA35;" points="1182.942,1417.303 1182.942,1381.568 1238.744,1381.568 			"/>
		</g>
		<g>
			<path style="fill:#FFDF69;" d="M1265.093,657.899c0,0-0.169,111.688-26.349,206.366l-55.802,34.925H986.197
				c37.379-99.473,37.606-241.291,37.606-241.291H1265.093z"/>
			<polygon style="fill:#DEBA35;" points="1182.942,899.19 1182.942,863.456 1238.744,863.456 			"/>
		</g>
		<g>
			<g>
				<path style="fill:#F0F0F0;" d="M745.836,1435.652c0,0-0.169,111.688-26.349,206.365l-55.802,34.926H466.939
					c37.38-99.473,37.605-241.291,37.605-241.291H745.836z"/>
				<polygon style="fill:#C9C9C9;" points="663.685,1676.943 663.685,1641.209 719.486,1641.209 				"/>
			</g>
			<g>
				<g>
					<path style="fill:#A3A3A3;" d="M616.967,1600.688c-3.098,0-5.608-2.511-5.608-5.607v-77.564c0-3.098,2.511-5.608,5.608-5.608
						c3.097,0,5.608,2.511,5.608,5.608v77.564C622.575,1598.177,620.064,1600.688,616.967,1600.688z"/>
				</g>
				<g>
					<path style="fill:#A3A3A3;" d="M655.749,1561.906h-77.565c-3.097,0-5.608-2.512-5.608-5.609c0-3.097,2.511-5.607,5.608-5.607
						h77.565c3.097,0,5.608,2.511,5.608,5.607C661.357,1559.395,658.846,1561.906,655.749,1561.906z"/>
				</g>
			</g>
		</g>
		<g>
			<g>
				<path style="fill:#F0F0F0;" d="M1005.465,917.528c0,0-0.17,111.688-26.35,206.365l-55.801,34.926H726.568
					c37.38-99.474,37.606-241.291,37.606-241.291H1005.465z"/>
				<polygon style="fill:#C9C9C9;" points="923.313,1158.819 923.313,1123.085 979.115,1123.085 				"/>
			</g>
			<g>
				<g>
					<path style="fill:#A3A3A3;" d="M876.595,1082.564c-3.097,0-5.608-2.512-5.608-5.608v-77.564c0-3.098,2.511-5.608,5.608-5.608
						c3.098,0,5.608,2.511,5.608,5.608v77.564C882.204,1080.053,879.693,1082.564,876.595,1082.564z"/>
				</g>
				<g>
					<path style="fill:#A3A3A3;" d="M915.378,1043.781h-77.565c-3.097,0-5.608-2.511-5.608-5.607c0-3.098,2.511-5.608,5.608-5.608
						h77.565c3.097,0,5.608,2.511,5.608,5.608C920.985,1041.271,918.475,1043.781,915.378,1043.781z"/>
				</g>
			</g>
		</g>
		<g>
			<path style="fill:#F0F0F0;" d="M1524.722,1176.012c0,0-0.169,111.688-26.35,206.365l-55.801,34.926h-196.746
				c37.38-99.473,37.606-241.291,37.606-241.291H1524.722z"/>
			<polygon style="fill:#C9C9C9;" points="1442.571,1417.303 1442.571,1381.568 1498.372,1381.568 			"/>
		</g>
		<g>
			<g>
				<g>
					<path style="fill:#A3A3A3;" d="M1391.092,1327.193l-35.049-30.555c-2.874-2.505-3.173-6.867-0.667-9.74
						c2.506-2.874,6.866-3.172,9.741-0.668l24.784,21.607l35.344-39.422c2.545-2.839,6.91-3.077,9.749-0.531
						c2.839,2.545,3.076,6.909,0.531,9.749L1391.092,1327.193z"/>
				</g>
			</g>
		</g>
		<g>
			<g>
				<g>
					<path style="fill:#FFDF69;" d="M281.292,1018.365l-28.214-24.597c-2.314-2.017-2.554-5.528-0.537-7.841
						c2.017-2.314,5.527-2.554,7.841-0.538l19.952,17.394l28.452-31.735c2.049-2.285,5.564-2.478,7.848-0.428
						c2.286,2.049,2.477,5.563,0.428,7.848L281.292,1018.365z"/>
				</g>
			</g>
		</g>
		<g>
			<g>
				<path style="fill:#FFD255;" d="M1703.043,1289.013c-3.737,0.052-7.312-1.019-10.181-3.07c-3.255-2.327-5.223-5.633-5.545-9.313
					c-1.163-7.197-4.092-14.479-6.413-19.442c-9.503-6.276-15.258-16.771-15.416-28.156c-0.263-18.912,14.91-34.512,33.821-34.775
					c18.912-0.262,34.512,14.91,34.774,33.822c0.143,10.296-4.271,19.979-12.126,26.64c-1.926,7.159-2.887,13.642-2.856,19.273
					c0.591,7.529-6.018,14.233-14.76,14.96C1703.908,1288.986,1703.475,1289.007,1703.043,1289.013z M1699.349,1197.063
					c-17.364,0.241-31.295,14.564-31.054,31.93c0.146,10.578,5.556,20.319,14.469,26.059l0.338,0.217l0.172,0.363
					c2.429,5.143,5.585,12.891,6.822,20.605l0.014,0.105c0.237,2.867,1.795,5.467,4.385,7.318c2.66,1.901,6.077,2.789,9.616,2.493
					c7.222-0.6,12.69-5.977,12.191-11.985l-0.005-0.055v-0.053c-0.04-6.01,0.993-12.908,3.069-20.506l0.117-0.43l0.343-0.282
					c7.411-6.123,11.585-15.135,11.452-24.726C1731.037,1210.753,1716.714,1196.821,1699.349,1197.063z"/>
			</g>
			<g>
				<polygon style="fill:#FFD255;" points="1695.664,1277.932 1687.845,1241.103 1696.185,1246.826 1700.519,1241.053 
					1705.129,1245.689 1711.831,1238.893 1710.769,1276.578 1707.964,1276.5 1708.825,1245.938 1705.138,1249.679 
					1700.816,1245.332 1696.814,1250.662 1692.049,1247.392 1698.408,1277.348 				"/>
			</g>
			<g>
				
					<rect x="1692.277" y="1285.525" transform="matrix(0.9966 -0.0828 0.0828 0.9966 -100.9574 145.5001)" style="fill:#FFD255;" width="24.33" height="9.804"/>
			</g>
			<g>
				
					<rect x="1687.784" y="1275.533" transform="matrix(0.9966 -0.0828 0.0828 0.9966 -100.3779 145.4251)" style="fill:#FFD255;" width="32.154" height="15.783"/>
			</g>
		</g>
		<polygon style="fill:#FFD179;" points="1273.841,293.532 1310.366,293.532 1299.187,270.344 1262.661,270.344 		"/>
		<polygon style="fill:#FFD179;" points="1256.749,293.532 1265.453,293.532 1254.274,270.344 1245.569,270.344 		"/>
		<polygon style="fill:#FFD179;" points="1130.554,265.916 1278.455,265.916 1273.547,254.322 1125.646,254.322 		"/>
		<polygon style="fill:#FFD179;" points="175.962,772.66 223.57,772.66 208.999,742.438 161.391,742.438 		"/>
		<polygon style="fill:#FFD179;" points="153.686,772.66 165.03,772.66 150.458,742.438 139.113,742.438 		"/>
		<g>
			<path style="fill:#2A3875;" d="M720.857,714.323c0,0-6.074,5.324-11.528,13.505c-5.455,8.181-19.933,8.616-20.553,19.783
				c-0.62,11.168,19.685,11.512,30.346,7.876c10.661-3.636,12.272-14.544,18.718-17.271c6.446-2.727,9.793-4.935,9.297-10.259
				c-0.496-5.324-4.063-13.967-4.063-13.967s-4.005,1.279-6.36,1.539C734.358,715.79,726.435,715.882,720.857,714.323z"/>
			<path style="fill:#FFD255;" d="M793.927,411.751c0,0-4.086,24.297-7.378,40.346c0,0,0,0,0,0.001
				c-1.336,6.507-2.542,11.66-3.29,13.282c-0.941,2.041-8.611,10.276-17.996,19.939c-16.469,16.954-38.228,38.303-38.228,38.303
				l-8.506-16.146c0,0,19.327-22.657,32.429-37.776c6.065-6.997,10.795-12.377,11.661-13.152c2.739-2.451,5.918-26.595,10.387-46.49
				c4.469-19.895,13.424-30.889,13.424-30.889L793.927,411.751z"/>
			<path style="fill:#EEA886;" d="M765.263,485.319c-16.469,16.954-38.228,38.303-38.228,38.303l-8.506-16.146
				c0,0,19.327-22.657,32.429-37.776C754.974,471.67,762.347,476.368,765.263,485.319z"/>
			<g>
				<path style="fill:#2A3875;" d="M870.879,707.67c0,0,5.592,6.186,8.9,9.935c3.308,3.749,15.976,10.451,16.044,21.585
					c0.074,12.074-9.346,11.017-17.726,10.576c-8.38-0.441-15.19-6.231-18.719-13.068c-3.528-6.836-12.917-8.633-13.578-14.146
					c-0.662-5.514,4.352-15.438,4.352-15.438L870.879,707.67z"/>
			</g>
			<path style="fill:#5F8CC9;" d="M851.233,696.836l-1.082,10.278c0,0,17.492,7.623,20.728,0.556l-0.752-9.153L851.233,696.836z"/>
			<path style="fill:#5F8CC9;" d="M721.81,706.884l-0.954,7.44c0,0,10.571,3.735,22.217-0.332l0.237-6.615L721.81,706.884z"/>
			<path style="fill:#FFD255;" d="M871.867,520.339c0.608,2.162-111.962,0-111.962,0s31.139-22.666,33.158-28.721
				c2.018-6.055-7.929-42.384-9.227-54.206c-1.038-9.458-3.639-51.778,2.595-58.242c6.518-6.758,29.986-13.84,29.986-13.84
				l34.215,1.27c0,0,5.646,1.181,9.683,3.055s27.121,10.096,30.869,21.629c3.749,11.534-23.034,48.615-23.034,48.615
				s-0.052,1.666-0.132,4.397c0,0.001,0,0.001,0,0.001c-0.104,3.642-0.257,9.176-0.397,15.179
				c-0.179,7.775-0.336,16.335-0.336,22.589C867.286,496.769,871.26,518.176,871.867,520.339z"/>
			<path style="fill:#1B4D8F;" d="M871.868,520.339c0,0,15.312,22.488,15.528,37.841c0.216,15.353-5.672,57.924-6.105,66.357
				c-0.433,8.434-8.361,78.714-8.361,78.714s-6.128,5.694-24.508-1.442c0,0-4.057-66.649-4.489-73.785
				c-0.433-7.136-0.433-40.004-4.541-44.761c-4.108-4.757-28.976-19.678-32.219-22.488c-3.244-2.811-59.75,10.677-65.67,12.212
				c-15.332,3.976-8.343,30.652-4.952,42.612c5.675,20.008,10.635,92.265,10.635,92.265s-10.92,4.653-29.211,0.721
				c0,0-35.917-130.469-37.071-143.444c-1.153-12.975-1.72-34.368,86.792-50.63L871.868,520.339z"/>
			<path style="fill:#EEA886;" d="M825.805,290.992c0,0-29.7-6.7-22.916,30.678c6.785,37.378,13.927,40.316,31.846,32.58
				c17.918-7.734,16.314-31.683,17.216-43.425C852.853,299.082,835.28,291.4,825.805,290.992z"/>
			<path style="fill:#EEA886;" d="M817.946,374.924c0,0,13.154,13.945,33.942,1.272c0,0-4.649-30.221-2.202-44.941
				c2.447-14.72-27.124,22.808-27.124,22.808c0.39,0.205,0.646,1.609,0.706,3.607c0.05,1.694-0.04,3.815-0.311,5.989
				C822.348,368.553,820.826,373.721,817.946,374.924z"/>
			<path style="fill:#EEA886;" d="M841.734,316.713c0.392-3.297,6.909-4.507,7.434,0.438s-2.962,13.622-5.436,12.768
				C841.259,329.065,841.194,321.26,841.734,316.713z"/>
			<path style="fill:#3A3F47;" d="M850.504,330.004c0,0-0.767-11.777-5.068-12.144c-4.301-0.368-4.963,4.375-4.963,4.375
				l-4.344,0.82c0,0,1.372-10.322-2.922-12.126c-4.295-1.804-27.828,5.682-31.276,2.653c-3.448-3.03-1.825-23.968,4.41-26.833
				c6.235-2.865,23.456-9.286,36.073-0.746c0,0,9.835-1.121,11.293,6.815C855.165,300.755,853.177,324.103,850.504,330.004z"/>
			<path style="fill:#A77860;" d="M822.958,363.659c21.447-6.612,23.062-19.526,23.085-19.728
				c-7.062,12.135-22.774,13.738-22.774,13.738C823.319,359.364,823.229,361.484,822.958,363.659z"/>
			<path style="fill:#EEA886;" d="M860.667,369.817c0,0-15.705,31.266-41.078,29.247c-25.373-2.018-4.325-33.444-3.172-33.734
				C817.685,365.01,842.439,358.843,860.667,369.817z"/>
			<path style="fill:#FFD255;" d="M747.028,518.755c0,0,77.742,9.585,124.84,1.584l-89.996-11.244
				C781.872,509.095,781.341,511.389,747.028,518.755z"/>
			<path style="fill:#EEA886;" d="M805.172,505.554l-5.791,2.934c0,0,1.318,9.2,4.49,11.987l6.499-1.658
				C810.371,518.816,809.017,508.726,805.172,505.554z"/>
			<path style="fill:#FFD255;" d="M895.131,486.716c-1.158,1.341-16.442,7.488-33.707,14.138l-0.001,0.002
				c-23.587,9.086-50.193,17.681-50.193,17.681l-6.057-12.982c0,0,27.863-15.141,46.69-25.758c8.894-5.016,15.77-9.022,16.742-9.948
				c3.027-2.883,3.812-7.506,1.586-15.57c-2.226-8.063-7.353-45.123-7.929-49.448c-0.577-4.324,1.442-15.858,12.254-16.435
				c10.813-0.577,16.315,2.475,16.315,2.475s2.714,1.129,4.733,27.367C897.582,444.477,897.87,483.545,895.131,486.716z"/>
			<path style="fill:#B8973D;" d="M868.018,444.296c0,0.001,0,0.001,0,0.001c-0.104,3.642-0.257,9.176-0.397,15.179
				c-10.553-25.866-4.456-46.509-4.352-46.857C862.128,419.64,867.936,443.951,868.018,444.296z"/>
			<path style="fill:#B8973D;" d="M786.549,452.097c0,0,0,0,0,0.001c-1.336,6.507-2.542,11.66-3.29,13.282
				c-3.604-17.444-0.362-39.777-0.362-39.777C783.391,436.272,786.549,452.097,786.549,452.097z"/>
			<path style="fill:#EEA886;" d="M861.424,500.854l-0.001,0.002c-23.587,9.086-51.052,17.96-51.052,17.96l-5.198-13.262
				c0,0,27.863-15.141,46.69-25.758C851.863,479.797,858.712,483.133,861.424,500.854z"/>
			<polygon style="fill:#5E5853;" points="803.496,519.586 693,517.96 748.788,546.287 			"/>
			<polygon style="fill:#91887F;" points="748.788,546.287 803.496,525.096 803.496,519.586 744.463,540.881 			"/>
			<g>
				<path style="fill:#EEA886;" d="M800.633,508.689c0,0-6.902-1.075-11.673-2.185c-3.692-0.859-12.872,0.324-15.209,2.694
					c-2.338,2.369-9.773,18.877-11.18,19.885c-1.406,1.007,0.72,3.338,3.19,2.168c0,0,2.267,7.223,7.863,4.519
					c5.596-2.703,9.396-8.608,12.326-9.648c2.931-1.04,19.997-6.286,19.997-6.286S805.03,506.931,800.633,508.689z"/>
			</g>
			<g>
				<path style="fill:#EEA886;" d="M775.435,508.115c0,0-4.434,2.142-5.591,3.096c-1.157,0.955-5.849,4.466-6.985,5.293
					c-1.136,0.826,1.714,3.176,10.102-0.456C781.348,512.414,775.435,508.115,775.435,508.115z"/>
			</g>
			<polygon style="fill:#6E6760;" points="748.788,546.287 715.92,456.55 609.965,458.279 641.289,540.975 			"/>
			<path style="fill:#807066;" d="M682.018,496.248c3.233,6.464,2.257,13.503-2.181,15.724c-4.438,2.22-10.657-1.221-13.89-7.685
				c-3.233-6.463-2.257-13.503,2.181-15.723C672.567,486.345,678.785,489.785,682.018,496.248z"/>
		</g>
		<g>
			<g>
				<g>
					<g>
						<path style="fill:#EEA886;" d="M629.253,1391.946c0,0,2.069,3.392,2.328,6.159c0.206,2.19,2.047,5.465,2.845,7.273
							c0.798,1.809,3.364,9.995,3.457,12.124c0.038,0.87-1.905,6.361-1.63,8.116c0.275,1.756,1.28,5.234-0.296,5.466
							c-1.577,0.231-3.364-2.621-3.364-2.621s0.149,1.617-1.185,2.234c-2.594,1.2-3.967,0.144-3.967,0.144s-0.957,1.778-2.158,2.018
							c-2.648,0.527-3.945-0.534-3.945-0.534s-1.167,0.997-2.997,0.962c-2.34-0.045-3.324-2.067-3.324-2.067s-2.965,0.6-3.825-0.783
							c-0.86-1.384-0.711-2.858-1.067-4.112c-0.357-1.253-0.087-12.571,3.758-20.721c3.845-8.149-0.979-16.098-0.979-16.098
							L629.253,1391.946z"/>
					</g>
				</g>
			</g>
			<g>
				<g>
					<path style="fill:#DB9C7C;" d="M633.008,1427.403c0,0,0.264-10.155-2.409-12.317c-2.673-2.162-2.977,1.503-2.977,1.503
						s0.363-3.622-2.558-4.111s-3.044,3.813-3.044,3.813s-0.478-2.793-3.546-2.219c-3.068,0.574-2.337,4.139-2.337,4.139
						s-2.931-3.496-4.831-0.139c-3.21,5.67-0.291,12.42-0.291,12.42s1.018,1.662,3.938,0.91c0,0,1.984,3.974,6.353,1.145
						c0,0,4.598,2.487,6.227-1.459C627.533,1431.088,632.773,1433.175,633.008,1427.403z"/>
				</g>
			</g>
			<path style="fill:#384C9E;" d="M663.702,1245.657c0,0-17.384,57.942-23.258,79.314c-1.842,6.703-6.3,70.716-7.087,73.294
				c-0.787,2.577-22.838,6.107-22.838,6.107s2.672-80.08,2.921-84.447c0.249-4.367,24.33-93.795,31.334-96.984
				c5.246-2.391,8.016-0.414,14.627,4.495C668.68,1234.325,663.702,1245.657,663.702,1245.657z"/>
			<g>
				
					<rect x="830.325" y="1151.182" transform="matrix(0.8368 -0.5475 0.5475 0.8368 -491.8618 655.798)" style="fill:#4DA8F2;" width="47.558" height="3.533"/>
			</g>
			<path style="fill:#EFAA88;" d="M879.211,1153.421c0,0-0.38,2.251-1.026,3.154c0,0-1.302,1.554-2.161,2.713
				c-0.271,0.369-0.5,0.697-0.624,0.924c-0.524,0.948-1.39,3.186-3.288,5.109c-1.893,1.922-9.276,8.035-9.276,8.035l-6.325-5.368
				l-6.566-2.943c0,0,3.677-15.98,5.235-17.975c0.154-0.194,0.312-0.381,0.475-0.544c1.483-1.563,3.244-2.1,4.115-2.832
				c0.322-0.266,3.7-2.7,4.904-2.386c1.671,0.434,2.654,1.413,3.035,2.533c0,0,3.236,0.993,4.496,2.892c0,0,3.014,0.821,3.909,3.629
				C876.115,1150.361,879.08,1151.537,879.211,1153.421z"/>
			<g>
				<g>
					<path style="fill:#424773;" d="M649.596,1641.271c0,0-1.585,11-1.783,12.652c-0.198,1.652-17.629-0.974-17.629-0.974
						l-1.411-13.095C628.773,1639.855,647.417,1639.72,649.596,1641.271z"/>
				</g>
			</g>
			<g>
				<g>
					<path style="fill:#292C47;" d="M647.999,1652.525c0,0,5.522,6.628,10.864,9.517c5.342,2.89,13.736,4.033,16.894,7.024
						c2.28,2.159,8.304,11.452-13.88,11.265c-22.184-0.188-32.88,1.313-35.257-2.25c-2.377-3.563,3.439-26.301,3.439-26.301
						S635.313,1653.67,647.999,1652.525z"/>
				</g>
			</g>
			<g>
				<g>
					<path style="fill:#424773;" d="M774.489,1641.271c0,0-1.584,11-1.783,12.652c-0.198,1.652-17.629-0.974-17.629-0.974
						l-1.411-13.095C753.666,1639.855,772.31,1639.72,774.489,1641.271z"/>
				</g>
			</g>
			<g>
				<g>
					<path style="fill:#292C47;" d="M772.892,1652.525c0,0,5.523,6.628,10.864,9.517c5.341,2.89,24.998,5.262,28.156,8.252
						c2.28,2.159,6.072,10.849-25.143,10.036c-22.177-0.577-32.88,1.313-35.257-2.25c-2.377-3.563,3.439-26.301,3.439-26.301
						S759.901,1653.8,772.892,1652.525z"/>
				</g>
			</g>
			<g>
				<g>
					<path style="fill:#292C47;" d="M664.03,1358.632c0,0-16.378,26.021-15.157,49.544c1.222,23.521-5.938,49.202-8.399,73.773
						c-2.743,27.394-13.967,92.244-14.375,106.896c-0.407,14.652,1.742,61.442,1.742,61.442l22.469,0.515
						c0,0,18.872-113.374,23.759-124.943c4.887-11.567,29.125-94.039,29.94-103.294
						C704.825,1413.313,664.03,1358.632,664.03,1358.632z"/>
				</g>
			</g>
			<g>
				<g>
					<path style="fill:#292C47;" d="M750.248,1362.157c0,0,12.343,64.47,13.972,78.866c1.629,14.396,2.716,69.669,3.53,78.667
						c0.815,8.998,7.609,117.474,9.775,131.112h-28.726c0,0-22.051-79.055-22.051-116.459c0-37.403-17.036-81.314-28.033-105.993
						c-10.997-24.679-36.168-25.263-42.928-71.05C655.788,1357.301,741.096,1347.636,750.248,1362.157z"/>
				</g>
			</g>
			<g>
				<g>
					<path style="fill:#EEA886;" d="M691.36,1139.857c0,0,21.983-8.211,32.12,8.523c10.137,16.733,9.16,50.235-1.921,54.354
						c-11.081,4.12-27.727,1.966-33.399-8.505c-5.673-10.472-10.795-25.609-10.549-35.727
						C677.856,1148.388,685.588,1142.777,691.36,1139.857z"/>
				</g>
			</g>
			<g>
				<g>
					<path style="fill:#EEA886;" d="M719.172,1203.502c0,0-0.915,5.936,0.597,8.859c1.512,2.923-28.48,3-28.48,3
						s-2.435-15.904-7.051-29.341C679.623,1172.584,719.172,1203.502,719.172,1203.502z"/>
				</g>
			</g>
			<g>
				<g>
					<path style="fill:#FCCCA2;" d="M684.238,1186.021c0,0,2.07,3.415,10.52,2.09c8.45-1.325,18.759-12.567,22.287-13.802
						c3.528-1.233,3.562-3.307,3.562-3.307l2.208,3.227l3.747,0.237c0,0-3.418-10.057,1.738-14.157
						c5.156-4.101-5.352-32.551-32.451-23.079c0,0-20.814,5.737-20.057,17.574C676.55,1166.642,679.581,1180.125,684.238,1186.021z"
						/>
				</g>
			</g>
			<g>
				<g>
					<path style="fill:#E2D2CA;" d="M721.55,1212.009c0,0-0.094-5.586-2.627-6.122c-2.532-0.535-27.95-2.979-31.058-1.758v6.508
						C687.865,1210.637,693.854,1214.322,721.55,1212.009z"/>
				</g>
			</g>
			<g>
				<g>
					<path style="fill:#EEA886;" d="M720.046,1166.697c-0.474-1.985-5.522-7.659-7.456-1.584
						c-1.933,6.074,2.921,14.246,5.628,13.547C720.926,1177.961,721.248,1171.73,720.046,1166.697z"/>
				</g>
			</g>
			<g>
				<g>
					<path style="fill:#384C9E;" d="M763.591,1220.468c-17.428-2.297-42.041-8.46-42.041-8.46l-33.686-1.372
						c0,0-30.916,6.806-43.091,12.306c-1.155,0.521-1.16,27.58-4.33,34.676l10.095,21.296c0,0,5.832,42.185,7.041,60.947
						c0.556,8.612-12.026,80.763-12.026,80.763s13.481,3.969,36.472,6.503c22.99,2.534,80.432-0.916,80.794-3.631
						c0.364-2.717-11.124-101.109-11.633-106.206c-0.78-7.82,2.696-49.378,2.696-49.378c5.308-4.117,51.914-25.751,64.628-37.025
						c3.403-3.018,17.764-17.003,21.847-21.831c14.457-17.095,26.309-31.761,27.751-34.921c1.638-1.799-16.137-11.367-17.71-11.893
						c-1.378-0.459-20.491,25.002-28.013,33.149c-3.354,3.633-17.295,13.774-17.295,13.774S774.493,1221.094,763.591,1220.468z"/>
				</g>
			</g>
			<g>
				<g>
					<path style="fill:#FCCCA2;" d="M685.1,1141.832c0,0-28.031,2.193-0.861,44.188L685.1,1141.832z"/>
				</g>
			</g>
			<polygon style="fill:#DFE1E8;" points="874.967,1141.402 877.267,1137.894 873.033,1138.446 			"/>
		</g>
		<g>
			<polygon style="fill:#5586AD;" points="619.849,1683.386 814.23,1683.386 752.967,1871.524 758.696,1873.39 822.528,1677.36 
				615.474,1677.36 552.25,1871.524 557.979,1873.39 			"/>
		</g>
		<g>
			<polygon style="fill:#5586AD;" points="686.005,1871.524 624.743,1683.386 819.123,1683.386 880.993,1873.39 886.722,1871.524 
				823.498,1677.36 616.444,1677.36 680.276,1873.39 			"/>
		</g>
		<g>
			<rect x="601.764" y="1736.604" style="fill:#5586AD;" width="237.916" height="6.025"/>
		</g>
		<g>
			<rect x="577.255" y="1802.02" style="fill:#5586AD;" width="284.647" height="6.025"/>
		</g>
		<g>
			<path style="fill:#323657;" d="M412.626,1377.353c0,0,2.653,48.153-6.182,55.208c-4.084,3.262-13.713,4.288-24.115,4.301
				c-3.427,0.005-6.936-0.103-10.36-0.272c-0.008,0.001-0.013-0.003-0.013-0.003c-13.671-0.684-25.944-2.42-25.944-2.42
				s-35.444,1.796-33.71-20.193c0,0,4.127-6.654,9.42-8.173c4.887-1.403,27.211,2.451,31.084,2.62
				c4.266,0.186,34.52,6.909,35.817,6.429c1.298-0.482,4.775-12.338,4.988-20.291c0.308-11.484,0.262-22.06,0.262-22.06
				L412.626,1377.353z"/>
		</g>
		<path style="fill:#252840;" d="M224.787,1834.623c0,0-2.976,7.174-5.485,10.018c-2.509,2.844-12.116,7.926-12.168,16.37
			c-0.057,9.157,16.194,6.616,22.55,6.282c6.356-0.335,6.836-5.227,9.513-10.412c2.676-5.186,5.373-4.307,5.875-8.488
			c0.501-4.182-2.049-13.543-2.049-13.543L224.787,1834.623z"/>
		<g>
			<path style="fill:#252840;" d="M352.019,1836.267c0,0,8.853,9.296,17.841,11.244c8.987,1.947,15.274,4.432,15.342,9.767
				c0.068,5.334-25.865,8.85-36.15,3.472c-15.35-8.026-16.911-5.606-18.612-9.619c-1.702-4.012,2.044-14.74,1.934-16.017
				C332.236,1833.536,352.019,1836.267,352.019,1836.267z"/>
		</g>
		<g>
			<path style="fill:#292C47;" d="M350.966,1567.817c0,0,9.299,67.546,13.097,90.38c4.44,26.698,5.946,48.757,7.184,62.576
				c1.557,17.381-14.738,110.88-13.648,115.962c1.09,5.081-29.341-2.112-29.341-2.112s9.561-111.253,4.922-129.764
				c-4.319-17.234-19.905-92.993-23.846-88.287c-3.941,4.707-28.692,87.841-31.611,101.435
				c-2.919,13.593-31.068,120.015-31.068,120.015s-21.04,4.521-26.391,0.262c0,0,18.36-97.771,20.22-123.256
				c0.709-9.713,6.464-115.788,22.887-158.76C272.05,1533.558,350.966,1567.817,350.966,1567.817z"/>
		</g>
		<g>
			<path style="fill:#C4B4AF;" d="M108.076,1380.899l1.706-25.371c0.351-5.216,4.863-9.159,10.079-8.809l54.425,3.659
				c5.216,0.351,9.16,4.862,8.809,10.078l-1.706,25.371c-0.351,5.215-4.863,9.159-10.079,8.809l-54.425-3.659
				C111.669,1390.627,107.726,1386.114,108.076,1380.899z"/>
			
				<rect x="301.074" y="1204.375" transform="matrix(-0.0671 0.9977 -0.9977 -0.0671 1726.2462 1151.3613)" style="fill:#EB4747;" width="47.537" height="356.709"/>
			
				<rect x="317.982" y="1188.565" transform="matrix(0.0671 -0.9977 0.9977 0.0671 -1059.7971 1600.3995)" style="fill:#6880EB;" width="15.846" height="356.71"/>
			
				<rect x="316.92" y="1204.375" transform="matrix(-0.0671 0.9977 -0.9977 -0.0671 1726.2426 1151.3368)" style="fill:#4A64E0;" width="15.846" height="356.709"/>
			
				<rect x="315.857" y="1220.185" transform="matrix(-0.0671 0.9977 -0.9977 -0.0671 1740.8884 1169.3029)" style="fill:#4860CF;" width="15.845" height="356.709"/>
			<polygon style="fill:#EDDAD3;" points="501.201,1418.407 504.39,1370.979 555.911,1393.394 569.16,1399.156 555.259,1403.094 			
				"/>
			<path style="fill:#DECCC6;" d="M503.327,1386.789c-4.233-0.284-7.425-4.055-7.131-8.42c0.293-4.365,3.961-7.675,8.194-7.391
				L503.327,1386.789z"/>
			<path style="fill:#E3D1CA;" d="M502.264,1402.6c-4.233-0.285-7.425-4.056-7.131-8.421c0.293-4.366,3.961-7.675,8.194-7.391
				L502.264,1402.6z"/>
			<path style="fill:#EDDAD3;" d="M501.201,1418.409c-4.233-0.285-7.425-4.056-7.131-8.421c0.293-4.365,3.961-7.674,8.194-7.391
				L501.201,1418.409z"/>
			
				<rect x="138.725" y="1343.909" transform="matrix(0.0671 -0.9977 0.9977 0.0671 -1215.007 1410.2782)" style="fill:#B39696;" width="15.846" height="21.919"/>
			
				<rect x="137.662" y="1359.718" transform="matrix(-0.0671 0.9977 -0.9977 -0.0671 1522.942 1317.3744)" style="fill:#DBB8B8;" width="15.846" height="21.919"/>
			
				<rect x="136.599" y="1375.528" transform="matrix(-0.0671 0.9977 -0.9977 -0.0671 1537.5819 1335.3004)" style="fill:#F2CBCB;" width="15.846" height="21.919"/>
			<polygon style="fill:#DECCC6;" points="503.327,1386.788 569.16,1399.156 504.39,1370.979 			"/>
			<polygon style="fill:#E3D1CA;" points="502.264,1402.598 569.16,1399.156 503.327,1386.788 			"/>
			<polygon style="fill:#EDDAD3;" points="502.264,1402.598 569.16,1399.156 501.201,1418.409 			"/>
			<polygon style="fill:#323438;" points="555.259,1403.094 555.911,1393.394 569.16,1399.156 			"/>
		</g>
		<g>
			<g>
				<path style="fill:#EFAA88;" d="M397.501,1361.512c0,0-1.846,8.189-0.073,10.461c1.773,2.272,2.605-0.644,2.605-0.644
					s-0.872,2.869,1.368,3.831c2.24,0.963,3.031-2.505,3.031-2.505s-0.07,2.358,2.458,2.487c2.528,0.129,2.522-2.905,2.522-2.905
					s1.763,3.403,3.814,1.047c3.461-3.979,2.085-10.01,2.085-10.01s-0.471-1.421-2.91-1.376c0,0-0.916-3.57-4.84-2.121
					c0,0-3.155-2.864-5.085,0.021C402.477,1359.799,398.94,1356.944,397.501,1361.512z"/>
			</g>
		</g>
		<g>
			<path style="fill:#CAC7D1;" d="M228.646,1566.699c0,0,11.544,3.506,16.378,2.619c4.841-0.889,2.391-60.209,2.582-72.553
				c0.146-10.012,5.625-36.445,5.625-36.445s0,0.015,0.008,0.044c0.007,0.007,0.007,0.022,0.007,0.029
				c0,0.015,0.008,0.029,0.008,0.044c0.542,1.98,7.936,29.411,8.192,42.592c0.272,13.678-1.782,66.002-1.782,66.002l20.378,1.984
				l58.566,1.436l12.217-1.441c0,0-1.46-22.375-2.003-33.003c-0.337-6.755-1.65-18.85-1.313-30.629c0,0-0.213-12.417,1.02-17.764
				c0.132-23.603,1.562-46.978,1.562-46.978c0.793-10.701,1.342-20.705,1.658-30.042c-2.582-1.364-5.684-2.963-8.17-4.144
				c-7.686-3.66-18.395-8.589-25.267-11.742c-4.027-1.849-7.965-3.198-7.965-3.198s-27.468-2.634-29.697-2.493
				c-0.704,0.043-4.137,1.239-8.64,2.955c-9.74,3.697-28.516,11.222-31.509,13.371c-4.386,3.139-13.657,77.745-14.075,82.967
				C225.669,1499.721,228.646,1566.699,228.646,1566.699z"/>
		</g>
		<path style="fill:#1D2033;" d="M349.061,1561.661c0,0-40.197,3.423-75.402,0v11.552c0,0,52.872,7.635,77.166-2.203
			L349.061,1561.661z"/>
		<g>
			<path style="fill:#323657;" d="M314.777,1395.189c0,0,6.538,15.361,11.445,49.694c1.885,13.188,5.379,35.386,7.917,58.042v0.008
				c2.002,17.859,6.571,36.188,8.024,49.859c1.503,14.163,6.036,55.889,6.036,55.889l10.994-6.931
				c1.57-1.452,3.77-3.338,3.132-5.376c-3.022-9.763-8.809-42.034-12.227-70.162c0-0.021-0.007-0.037-0.007-0.059
				c-0.161-1.357-0.322-2.699-0.477-4.034c-0.007-0.065-0.015-0.14-0.022-0.212c-0.646-5.626-1.181-11.017-1.563-15.953
				c-0.293-3.784-0.029-7.48,0.492-11.097c1.532-25.248,2.293-51.866,2.293-51.866c0.807-10.898,2.807-24.998,3.115-34.488
				c-3.828-0.514-6.666-1.025-9.742-1.949C344.187,1406.555,322.517,1398.454,314.777,1395.189z"/>
		</g>
		<g>
			<path style="fill:#EEA987;" d="M310.18,1393.851c0.593,3.075-16.362,11.904-27.309,1.608c0,0,2.059-18.281,1.383-23.359
				c-0.705-5.078,25.39,5.755,25.39,5.755s0,6.037,0.168,10.806c0.057,1.439,0.113,2.765,0.198,3.779
				C310.067,1393.033,310.124,1393.512,310.18,1393.851z"/>
		</g>
		<path style="fill:#EEA987;" d="M308.908,1395.333c0,0-2.104,7.388-5.545,14.137c0,0-7.986-6.997-10.499-9.49
			C290.351,1397.487,308.908,1395.333,308.908,1395.333z"/>
		<path style="fill:#A09EA6;" d="M295.008,1401.649l8.355,7.821c0,0-9.877-0.656-11.723-2.302L295.008,1401.649z"/>
		<path style="fill:#EAE6F2;" d="M283.924,1387.238c0,0,6.684,10.865,11.084,14.41l-7.414,12.309l-11.886-21.593L283.924,1387.238z"
			/>
		<g>
			<path style="fill:#323657;" d="M248.445,1497.326c-0.852,11.456,3.994,74.842-0.842,75.733
				c-4.835,0.887-22.608-3.019-22.608-3.019s-2.229-68.354-1.515-75.52c0.52-5.216,8.823-83.445,13.207-86.587
				c2.531-1.817,21.293-8.468,30.499-12.096c1.683-0.665,7.012-2.902,8.52-3.475c1.953,2.173,18.965,42.094,20.581,73.229
				c0.492,9.479-1.728,29.49-3.418,45.84c-1.803,17.442-3.799,31.057-5.262,45.643c-2.883,28.738-4.899,51.605-4.899,51.605
				l-28.602-12.733c-4.628-2.315-11.037-11.816-9.297-16.69c6.612-18.52,14.938-50.16,14.947-66.411c0,0-3.19-39.793-5.719-48.54
				C254.04,1464.307,249.528,1482.762,248.445,1497.326z"/>
		</g>
		<path style="fill:#EFAA88;" d="M224.928,1602.592c0,0-0.969-2.363-0.888-3.604c0,0,0.319-2.246,0.45-3.855
			c0.039-0.512,0.063-0.958,0.047-1.247c-0.062-1.211-0.561-3.849,0.106-6.8c0.665-2.946,4.069-13.119,4.069-13.119l9.184,1.365
			l7.981-1.082c0,0,5.948,17.362,5.646,20.181c-0.031,0.275-0.072,0.546-0.13,0.797c-0.487,2.361-1.842,3.913-2.238,5.124
			c-0.149,0.442-1.921,4.752-3.251,5.165c-1.845,0.575-3.357,0.226-4.381-0.613c0,0-3.663,0.967-5.982-0.093c0,0-3.35,1-5.86-1.14
			C229.68,1603.671,226.167,1604.306,224.928,1602.592z"/>
		<g>
			<path style="fill:#323657;" d="M249.199,1529.371l-0.294,50.374c0,0-10.053-0.447-23.909-5.563l-0.961-71.037L249.199,1529.371z"
				/>
		</g>
		<rect x="301.504" y="1562.37" style="fill:#3A4066;" width="18.946" height="14.086"/>
		<g>
			<path style="fill:#EEA886;" d="M326.645,1341.111c0,0,6.314,11.705,3.185,13.525c-2.586,1.504,3.029,12.99,3.764,14.867
				c0.734,1.877-4.684,3.239-5.834,4.447c-1.15,1.208-4.562,16.07-9.024,16.519c-4.462,0.448-24.567-6.544-30.042-12.235
				c-5.475-5.693-9.967-31.404-6.313-42.249C286.034,1325.14,315.503,1320.665,326.645,1341.111z"/>
		</g>
		<g>
			<path style="fill:#E8734D;" d="M327.904,1343.649c0,0,6.445-12.641-5.261-22.019c-11.706-9.377-33.291,7.08-35.724,7.708
				c-2.433,0.627-16.236,1.575-9.266,25.812c5.984,20.812,6.7,21.687,6.7,21.687s4.587-12.056,7.118-13.894
				c3.953-2.87,12.619-2.181,12.619-2.181s-4.129-10.963,2.324-12.516C312.868,1346.693,321.375,1341.225,327.904,1343.649z"/>
		</g>
		<g>
			<path style="fill:#EEA886;" d="M297.216,1354.484c-0.569-1.504-2.409-7.967-7.955-4.172s3.455,15.977,4.422,16.134
				C294.65,1366.604,302.006,1367.139,297.216,1354.484z"/>
		</g>
		<path style="fill:#A77860;" d="M310.01,1392.439c-0.113-0.028-0.254-0.057-0.366-0.084c-12.3-2.144-18.45-11.736-18.817-12.328
			c7.956,5.303,18.986,8.633,18.986,8.633C309.869,1390.099,309.926,1391.425,310.01,1392.439z"/>
		<path style="fill:#A09EA6;" d="M310.972,1403.842l-7.609,5.628c0,0,6.396-13.552,6.528-18.979L310.972,1403.842z"/>
		<polygon style="fill:#EAE6F2;" points="309.891,1390.49 315.063,1395.304 320.507,1411.543 310.972,1403.842 		"/>
		<g>
			<path style="fill:#CFBFB8;" d="M1819.65,1771.928c0,0,3.874-5.873,4.507-9.321c0.633-3.449,2.576-5.414,2.576-5.414
				s14.683-2.137,20.325-7.374c5.643-5.238,17.597-19.506,23.241-15.23c5.644,4.275-4.091,22.268-9.851,27.703
				c-5.76,5.437-13.558,14.963-20.643,14.258C1832.722,1775.842,1823.075,1772.479,1819.65,1771.928z"/>
			<path style="fill:#25354D;" d="M1819.65,1771.026l7.083-13.834c0,0-33.904-6.213-43.82-12.185
				c-2.486-1.498-4.959-2.999-7.261-4.42c-5.237-3.232-9.579-6.029-11.111-7.33c-4.895-4.163-24.52-18.066-29.823-23.173
				c-5.297-5.104-11.559-1.993-19.822-1.91c-8.266,0.089-38.201,8.38-47.154,9.568c-8.959,1.181-41.297,7.194-41.297,7.194
				C1632.138,1740.495,1819.65,1771.026,1819.65,1771.026z"/>
			<path style="fill:#2F4563;" d="M1624.557,1724.434c0,0,18.245,2.629,22.936,2.986c4.803,0.366,31.972,2.552,45.074,3.81
				c13.102,1.259,38.838,0.507,43.944,2.752c5.107,2.244,34.617,12.245,44.276,15.364c9.66,3.121,72.42,14.609,72.42,14.609
				s1.075,8.504-4.48,15.03c0,0-27.663-2.47-42.262-0.324c-14.599,2.146-40.099-1.123-55.575-8.144
				c-15.476-7.02-40.009-0.615-53.719,4.203c-13.711,4.817-66.128,8.686-72.669,7.217c-6.542-1.468-19.587-7.764-29.038-18.042
				S1624.557,1724.434,1624.557,1724.434z"/>
			<path style="fill:#EDDAD3;" d="M1848.727,1778.985c0,0,2.339-6.635,2.118-10.134c-0.22-3.5,0.851-5.174,0.851-5.174
				s14.069-6.327,18.277-12.775c4.209-6.447,12.356-23.183,18.867-20.399c6.511,2.783,1.417,22.596-2.858,29.264
				c-4.274,6.668-6.916,24.412-13.962,25.44C1864.977,1786.236,1852.184,1778.692,1848.727,1778.985z"/>
			<path style="fill:#2F4563;" d="M1583.538,1712.754c0,0-23.059,52.33,12.736,65.018c28.551,10.12,81.184,0.804,81.184,0.804
				l-32.383-51.025L1583.538,1712.754z"/>
			<path style="fill:#323657;" d="M1642.895,1515.279c-8.78,1.954-3.547,23.999-9.432,54.822
				c-5.885,30.822-24.461,35.64-24.461,35.64s8.25-13.667,7.347-27.957c-0.705-11.166-14.231-41.629-0.861-61.542
				c10.33-15.384,28.533-1.418,28.533-1.418L1642.895,1515.279z"/>
			<path style="fill:#EEA886;" d="M1629.683,1579.451l17.072,17.571c0.158-3.226,1.343-7.149,2.559-10.423
				c0.597-1.602,1.205-3.051,1.693-4.172c0.648-1.474,1.105-2.391,1.105-2.391l-15.231-16.105L1629.683,1579.451z"/>
			<path style="fill:#FFD255;" d="M1650.008,1595.297c0,0,0.66,8.451,5.26,16.246c4.601,7.795,12.205,20.734,11.128,29.148
				c-1.077,8.412-4.656,11.468-7.89,14.497s-12.108,24.891-13.185,33.304c-1.078,8.413-1.758,25.895,0.288,38.747
				c0,0-59.87,6.947-65.892-3.513c0,0,7.43-33.637,10.934-42.065c3.506-8.43,10.842-58.857,13.989-67.433
				c3.148-8.574,10.568-16.864,15.106-22.812c4.053-5.312,11.436-15.195,11.436-15.195L1650.008,1595.297z"/>
			<path style="fill:#EEA886;" d="M1657.489,1517.071c7.902,0.527,24.873,6.493,25.153,27.628c0,0-1.277,5.541-3.148,9.795
				c-1.872,4.253,0.577,17.715-0.528,18.237c-1.106,0.522-5.462,0.85-5.462,0.85s-6.225,13.679-11.199,12.98
				c-4.974-0.698-23.405-6.777-30.257-25.48C1625.196,1542.377,1625.583,1514.941,1657.489,1517.071z"/>
			<path style="fill:#323657;" d="M1682.643,1544.699c0,0-13.76,7.223-26.622,7.516c-12.862,0.294-23.404,20.913-23.404,20.913
				s-15.574-34.939,2.261-52.667C1652.658,1502.787,1688.199,1520.762,1682.643,1544.699z"/>
			<path style="fill:#EEA886;" d="M1653.013,1552.09c0.215-2.459-2.088-6.451-6.49-3.566c-4.402,2.885-0.349,15.162,3.074,14.4
				C1653.02,1562.161,1652.792,1554.631,1653.013,1552.09z"/>
			<path style="fill:#A77860;" d="M1638.799,1572.659c0.239,0.397,6.504,10.659,10.515,13.94c0.597-1.602,1.205-3.051,1.693-4.172
				C1651.007,1582.428,1642.061,1577.096,1638.799,1572.659z"/>
			
				<rect x="1682.591" y="1729.116" transform="matrix(0.9826 0.1855 -0.1855 0.9826 351.3972 -289.955)" style="fill:#C4C4C4;" width="85.144" height="7.411"/>
			
				<rect x="1744.787" y="1703.455" transform="matrix(0.5655 -0.8247 0.8247 0.5655 -631.3798 2215.8357)" style="fill:#C4C4C4;" width="85.144" height="7.411"/>
			<path style="fill:#EEA886;" d="M1750.316,1733.8c0.415-1.86,0-4.963-5.856-8.099c-5.855-3.137-18.502-10.272-22.949-10.441
				c-4.446-0.17-13.206,0.53-15.004,0.521c-1.797-0.009,2.818,10.582,2.818,10.582L1750.316,1733.8z"/>
			<path style="fill:#EEA886;" d="M1708.563,1716.592c0,0-24.409-9.606-28.373-11.52c-3.963-1.914-22.447-8.13-24.088-8.95
				c-1.64-0.819-9.365-46.968-10.049-58.585c-0.684-11.617-1.367-36.218-14.487-35.125c-13.12,1.094-16.265,9.704-14.624,26.651
				c1.641,16.947,11.344,77.63,15.444,79.68c4.1,2.05,51.168,12.578,75.986,17.528
				C1732.122,1731.01,1708.563,1716.592,1708.563,1716.592z"/>
			<path style="fill:#EDDAD3;" d="M1647.395,1641.15c0,0-18.908,3.528-29.808,4.623c0,0-13.565-38.641,4.899-44.813
				C1644.376,1593.643,1649.267,1623.589,1647.395,1641.15z"/>
		</g>
		<g>
			<g>
				<g>
					<g>
						<g>
							<g>
								<path style="fill:#FFCA55;" d="M1711.127,1030.544l-23.62-10.265c-1.938-0.842-2.825-3.095-1.983-5.031
									c0.842-1.938,3.095-2.824,5.031-1.983l16.703,7.26l12.061-26.731c0.869-1.926,3.134-2.782,5.059-1.913
									c1.925,0.869,2.781,3.133,1.913,5.058L1711.127,1030.544z"/>
							</g>
						</g>
					</g>
				</g>
			</g>
			<g>
				<path style="fill:#FFCA55;" d="M1737.981,1053.085c-21.78,15.306-51.953,10.037-67.258-11.744
					c-15.306-21.781-10.037-51.953,11.744-67.259c21.781-15.305,51.953-10.037,67.259,11.744
					C1765.031,1007.607,1759.763,1037.779,1737.981,1053.085z M1686.433,979.726c-18.669,13.118-23.186,38.981-10.066,57.649
					c13.119,18.67,38.98,23.186,57.65,10.067c18.67-13.119,23.186-38.981,10.067-57.65
					C1730.964,971.122,1705.103,966.607,1686.433,979.726z"/>
			</g>
		</g>
		<g>
			<g>
				<polygon style="fill:#292C47;" points="1140.278,1456.267 1089.594,1484.127 1038.694,1404.029 1100.256,1382.645 				"/>
			</g>
			<g>
				<polygon style="fill:#E2D2CA;" points="1137.064,1453.86 1089.664,1479.914 1042.066,1405.009 1099.636,1385.011 				"/>
			</g>
			<g>
				<path style="fill:#EEA886;" d="M1154.423,1439.852c0,0-8.822-4.219-12.694-6.424c-3.872-2.206-13.833-5.233-14.637-5.952
					c-0.805-0.719-29.527-2.491-31.27-3.993c-1.742-1.504-3.435,3.522,4.008,5.152c7.444,1.631,17.804,5.618,18.37,8.527
					c0.567,2.909-7.646,3.599-8.478,5.995c-0.831,2.396,0.234,1.859,1.41,2.373c1.178,0.515,9.769-4.244,13.547-2.894
					c3.778,1.351,9.554-0.52,12.449,0.472c2.896,0.991,16.975,5.729,16.975,5.729L1154.423,1439.852z"/>
			</g>
			<g>
				<path style="fill:#EEA886;" d="M1087.123,1474.076c0,0-7.412-6.67-10.998-9.46c-3.586-2.79-10.316-10.999-11.308-11.477
					c-0.991-0.478-13.845-26.855-15.939-27.911c-2.095-1.057,1.981-4.61,6.417,1.77c4.434,6.381,12.226,14.591,15.188,13.992
					c2.963-0.6,0.414-8.608,2.349-10.324c1.934-1.717,1.843-0.504,2.785,0.405c0.943,0.909-0.195,10.858,2.549,13.893
					c2.743,3.034,3.229,9.205,5.292,11.548c2.062,2.343,12.008,13.766,12.008,13.766L1087.123,1474.076z"/>
			</g>
			<g>
				<path style="fill:#424773;" d="M1246.73,1830.599c0,0,1.604,11.128,1.804,12.8c0.2,1.671,17.834-0.985,17.834-0.985
					l1.428-13.247C1267.796,1829.166,1248.936,1829.029,1246.73,1830.599z"/>
			</g>
			<g>
				<path style="fill:#292C47;" d="M1248.347,1841.983c0,0-5.587,6.704-10.99,9.627c-5.403,2.923-13.895,4.081-17.091,7.106
					c-2.307,2.184-8.4,11.585,14.042,11.395c22.442-0.189,33.263,1.328,35.667-2.276c2.405-3.604-3.479-26.606-3.479-26.606
					S1261.181,1843.142,1248.347,1841.983z"/>
			</g>
			<g>
				<path style="fill:#424773;" d="M1120.385,1830.599c0,0,1.603,11.128,1.803,12.8c0.201,1.671,17.834-0.985,17.834-0.985
					l1.429-13.247C1141.45,1829.166,1122.589,1829.029,1120.385,1830.599z"/>
			</g>
			<g>
				<path style="fill:#292C47;" d="M1122,1841.983c0,0-5.587,6.704-10.99,9.627s-25.289,5.323-28.484,8.349
					c-2.306,2.184-6.142,10.975,25.436,10.152c22.435-0.584,33.264,1.328,35.668-2.276c2.404-3.604-3.479-26.606-3.479-26.606
					S1135.142,1843.271,1122,1841.983z"/>
			</g>
			<g>
				<path style="fill:#292C47;" d="M1232.129,1544.67c0,0,16.568,26.324,15.333,50.119c-1.236,23.797,6.008,49.775,8.496,74.633
					c2.775,27.713,14.13,93.317,14.542,108.141c0.412,14.824-1.763,62.158-1.763,62.158l-22.73,0.52
					c0,0-19.091-114.693-24.036-126.397c-4.943-11.702-29.463-95.133-30.287-104.496
					C1190.859,1599.986,1232.129,1544.67,1232.129,1544.67z"/>
			</g>
			<g>
				<path style="fill:#292C47;" d="M1144.908,1548.236c0,0-12.487,65.219-14.135,79.783c-1.649,14.564-2.747,70.48-3.571,79.583
					c-0.824,9.103-5.494,119.114-9.89,132.638h29.062c0,0,22.307-79.975,22.307-117.814s17.234-82.261,28.358-107.228
					c11.125-24.965,36.59-25.557,43.428-71.877C1240.467,1543.322,1154.167,1533.545,1144.908,1548.236z"/>
			</g>
			<g>
				<path style="fill:#EEA886;" d="M1204.48,1323.349c0,0-22.239-8.307-32.493,8.622c-10.255,16.929-9.267,50.82,1.943,54.988
					c11.21,4.167,28.049,1.988,33.789-8.604c5.738-10.593,10.921-25.907,10.672-36.142
					C1218.142,1331.979,1210.32,1326.303,1204.48,1323.349z"/>
			</g>
			<g>
				<path style="fill:#EEA886;" d="M1176.345,1387.734c0,0,0.926,6.004-0.604,8.962c-1.53,2.958,28.812,3.034,28.812,3.034
					s2.464-16.088,7.133-29.682S1176.345,1387.734,1176.345,1387.734z"/>
			</g>
			<g>
				<path style="fill:#3A3F47;" d="M1211.686,1370.049c0,0-2.094,3.455-10.643,2.114c-8.548-1.34-18.976-12.713-22.545-13.962
					c-3.569-1.248-3.603-3.346-3.603-3.346l-2.234,3.265l-3.791,0.239c0,0,3.457-10.173-1.759-14.322
					c-5.216-4.148,5.414-32.929,32.829-23.347c0,0,21.056,5.804,20.29,17.779
					C1219.464,1350.444,1216.397,1364.086,1211.686,1370.049z"/>
			</g>
			<g>
				<path style="fill:#E2D2CA;" d="M1173.939,1396.34c0,0,0.096-5.651,2.657-6.193s28.276-3.014,31.42-1.777v6.583
					C1208.017,1394.952,1201.958,1398.68,1173.939,1396.34z"/>
			</g>
			<g>
				<path style="fill:#EEA886;" d="M1175.461,1350.501c0.479-2.009,5.587-7.748,7.543-1.602c1.955,6.145-2.955,14.412-5.694,13.705
					C1174.57,1361.896,1174.245,1355.593,1175.461,1350.501z"/>
			</g>
			<g>
				<path style="fill:#323657;" d="M1071.889,1463.112c0.012-0.005,0.025-0.007,0.042-0.003
					C1071.754,1463.187,1071.729,1463.193,1071.889,1463.112z"/>
			</g>
			<g>
				<path style="fill:#384C9E;" d="M1250.821,1607.382c0,0-13.639,4.016-36.896,6.579c-23.258,2.563-81.368-0.927-81.734-3.674
					c-0.368-2.748,12.5-102.313,11.768-107.441c-0.732-5.127-1.124-23.396-1.124-23.396c-0.287,5.006-5.388,25.453-11.543,36.601
					c-2.225,4.027-9.687,16.65-13.283,13.779c-17.408-13.9-44.366-66.278-46.075-66.72c1.438-0.624,12.775-5.846,14.367-6.376
					c1.393-0.465,13.951,12.833,21.562,21.075c3.393,3.675,5.802,6.345,5.802,6.345c2.198-4.944,10.202-36.091,12.688-46.87
					c5.61-24.311,4.748-25.321,4.748-25.321c17.014-5.147,42.841-15.622,42.841-15.622l34.076-1.389c0,0,31.276,6.885,43.593,12.448
					c1.169,0.527,1.174,27.901,4.381,35.079l-10.212,21.544c0,0-5.899,42.677-7.124,61.656
					C1238.093,1534.392,1250.821,1607.382,1250.821,1607.382z"/>
			</g>
			<g>
				<path style="fill:#384C9E;" d="M1257.404,1478.018c-0.889,2.872-4.93,5.3-7.554,6.36c-1.68,0.68-3.563,0.899-5.456,0.549
					l-1.334-0.247v-0.002l-23.353-4.33c0,0-5.11-58.848,31.902-72.948C1252.589,1407.72,1265.579,1451.669,1257.404,1478.018z"/>
			</g>
			<g>
				<path style="fill:#1F2B59;" d="M1249.851,1484.376c0,0,0,0,0,0.002c-1.68,0.68-3.563,0.899-5.456,0.549l-1.334-0.247v-0.002
					l2.303-30.071L1249.851,1484.376z"/>
			</g>
			<g>
				<path style="fill:#1F2B59;" d="M1113.663,1484.153l-2.854,12.087c0,0-3.098-12.129-2.948-18.432
					C1111.254,1481.483,1113.663,1484.153,1113.663,1484.153z"/>
			</g>
			<g>
				<path style="fill:#3A3F47;" d="M1210.814,1325.346c0,0,29.146-3.65,0.494,45.035L1210.814,1325.346z"/>
			</g>
			<g>
				<polygon style="fill:#292C47;" points="1062.125,1399.73 1059.162,1394.641 1082.499,1386.59 1085.46,1391.652 				"/>
			</g>
		</g>
	</g>
</g>
</svg>
